# xmcd
#
# Track frame offsets: 
#        150
#        2137
#        15979
#        29326
#        46206
#        57734
#        70842
#        83632
#        98180
#        115601
#        130556
#        150214
#
# Disc length: 2184 seconds
#
# Revision: 0
# Processed by: cddbd v1.5.2PL0 Copyright (c) Steve Scherf et al.
# Submitted via: ExactAudioCopy v0.95b4
#
DISCID=8308860c
DTITLE=Ila Auto - If You Keep Pickin' It Might Never Heal
DYEAR=2006
DGENRE=Country
TTITLE0=Gospel Train
TTITLE1=Fire It Up
TTITLE2=Two Sets of Keys
TTITLE3=Sunday Girl
TTITLE4=Late Night Zombies
TTITLE5=Døladrag
TTITLE6=One More Ride
TTITLE7=Saro Jane
TTITLE8=The Road You Walk
TTITLE9=Red Clay Halo
TTITLE10=How Do I Get Out of This
TTITLE11=I Ain't Been Drinkin'
EXTD=
EXTT0=
EXTT1=
EXTT2=
EXTT3=
EXTT4=
EXTT5=
EXTT6=
EXTT7=
EXTT8=
EXTT9=
EXTT10=
EXTT11=
PLAYORDER=
